<mxfile host="Electron" agent="Mozilla/5.0 (Windows NT 10.0; Win64; x64) AppleWebKit/537.36 (KHTML, like Gecko) draw.io/28.2.5 Chrome/138.0.7204.251 Electron/37.6.1 Safari/537.36" version="28.2.5">
  <diagram name="Страница — 1" id="KJScdI6K66qK35eMJUDe">
    <mxGraphModel dx="523" dy="1016" grid="1" gridSize="10" guides="1" tooltips="1" connect="1" arrows="1" fold="1" page="1" pageScale="1" pageWidth="827" pageHeight="1169" math="0" shadow="0">
      <root>
        <mxCell id="0" />
        <mxCell id="1" parent="0" />
        <mxCell id="86pVsJWeTmLGM8qY-D4d-1" value="Начало" style="rounded=1;whiteSpace=wrap;html=1;" vertex="1" parent="1">
          <mxGeometry x="200" width="120" height="40" as="geometry" />
        </mxCell>
        <mxCell id="86pVsJWeTmLGM8qY-D4d-2" value="Ввод text" style="shape=parallelogram;perimeter=parallelogramPerimeter;whiteSpace=wrap;html=1;fixedSize=1;" vertex="1" parent="1">
          <mxGeometry x="200" y="50" width="120" height="80" as="geometry" />
        </mxCell>
        <mxCell id="86pVsJWeTmLGM8qY-D4d-3" value="text[i] != &#39; &#39;" style="rhombus;whiteSpace=wrap;html=1;" vertex="1" parent="1">
          <mxGeometry x="200" y="410" width="120" height="80" as="geometry" />
        </mxCell>
        <mxCell id="86pVsJWeTmLGM8qY-D4d-4" value="&lt;div&gt;word = &#39;&#39;&lt;/div&gt;text_mirrored = &#39;&#39;&lt;div&gt;text_reversed = &#39;&#39;&lt;/div&gt;" style="rounded=0;whiteSpace=wrap;html=1;" vertex="1" parent="1">
          <mxGeometry x="200" y="140" width="120" height="80" as="geometry" />
        </mxCell>
        <mxCell id="86pVsJWeTmLGM8qY-D4d-5" value="i = 0;&lt;div&gt;i &amp;lt; длина text;&lt;/div&gt;&lt;div&gt;i++&lt;/div&gt;" style="shape=hexagon;perimeter=hexagonPerimeter2;whiteSpace=wrap;html=1;fixedSize=1;" vertex="1" parent="1">
          <mxGeometry x="200" y="320" width="120" height="80" as="geometry" />
        </mxCell>
        <mxCell id="86pVsJWeTmLGM8qY-D4d-6" value="&lt;font style=&quot;font-size: 10px;&quot;&gt;text[i] = &#39; &#39;&amp;nbsp;&lt;/font&gt;&lt;span style=&quot;font-size: 10px; background-color: transparent; color: light-dark(rgb(0, 0, 0), rgb(255, 255, 255));&quot;&gt;или&amp;nbsp;&lt;/span&gt;&lt;div&gt;&lt;span style=&quot;font-size: 10px;&quot;&gt;длина word != 0&lt;/span&gt;&lt;/div&gt;" style="rhombus;whiteSpace=wrap;html=1;" vertex="1" parent="1">
          <mxGeometry x="60" y="460" width="120" height="80" as="geometry" />
        </mxCell>
        <mxCell id="86pVsJWeTmLGM8qY-D4d-7" value="&lt;div&gt;word = word + text[i]&lt;/div&gt;" style="rounded=0;whiteSpace=wrap;html=1;" vertex="1" parent="1">
          <mxGeometry x="340" y="460" width="120" height="80" as="geometry" />
        </mxCell>
        <mxCell id="86pVsJWeTmLGM8qY-D4d-10" value="&lt;div&gt;list_of_words = list_of_words + word&lt;/div&gt;&lt;div&gt;word = &#39;&#39;&lt;span style=&quot;white-space: pre;&quot;&gt;&#x9;&lt;/span&gt;&lt;/div&gt;" style="rounded=0;whiteSpace=wrap;html=1;" vertex="1" parent="1">
          <mxGeometry x="200" y="510" width="120" height="80" as="geometry" />
        </mxCell>
        <mxCell id="86pVsJWeTmLGM8qY-D4d-14" value="Список list_of_words длины 0;&lt;div&gt;Список reversed_list длины 0;&lt;/div&gt;" style="rounded=0;whiteSpace=wrap;html=1;" vertex="1" parent="1">
          <mxGeometry x="200" y="230" width="120" height="80" as="geometry" />
        </mxCell>
        <mxCell id="86pVsJWeTmLGM8qY-D4d-16" value="" style="endArrow=none;html=1;rounded=0;entryX=0.5;entryY=1;entryDx=0;entryDy=0;exitX=0.5;exitY=0;exitDx=0;exitDy=0;" edge="1" parent="1" source="86pVsJWeTmLGM8qY-D4d-2" target="86pVsJWeTmLGM8qY-D4d-1">
          <mxGeometry width="50" height="50" relative="1" as="geometry">
            <mxPoint x="230" y="220" as="sourcePoint" />
            <mxPoint x="280" y="170" as="targetPoint" />
          </mxGeometry>
        </mxCell>
        <mxCell id="86pVsJWeTmLGM8qY-D4d-17" value="" style="endArrow=none;html=1;rounded=0;entryX=0.5;entryY=1;entryDx=0;entryDy=0;exitX=0.5;exitY=0;exitDx=0;exitDy=0;" edge="1" parent="1" source="86pVsJWeTmLGM8qY-D4d-4" target="86pVsJWeTmLGM8qY-D4d-2">
          <mxGeometry width="50" height="50" relative="1" as="geometry">
            <mxPoint x="230" y="220" as="sourcePoint" />
            <mxPoint x="280" y="170" as="targetPoint" />
          </mxGeometry>
        </mxCell>
        <mxCell id="86pVsJWeTmLGM8qY-D4d-18" value="" style="endArrow=none;html=1;rounded=0;entryX=0.5;entryY=1;entryDx=0;entryDy=0;exitX=0.5;exitY=0;exitDx=0;exitDy=0;" edge="1" parent="1" source="86pVsJWeTmLGM8qY-D4d-14" target="86pVsJWeTmLGM8qY-D4d-4">
          <mxGeometry width="50" height="50" relative="1" as="geometry">
            <mxPoint x="230" y="220" as="sourcePoint" />
            <mxPoint x="280" y="170" as="targetPoint" />
          </mxGeometry>
        </mxCell>
        <mxCell id="86pVsJWeTmLGM8qY-D4d-19" value="" style="endArrow=none;html=1;rounded=0;exitX=0.5;exitY=0;exitDx=0;exitDy=0;entryX=0.5;entryY=1;entryDx=0;entryDy=0;" edge="1" parent="1" source="86pVsJWeTmLGM8qY-D4d-5" target="86pVsJWeTmLGM8qY-D4d-14">
          <mxGeometry width="50" height="50" relative="1" as="geometry">
            <mxPoint x="230" y="270" as="sourcePoint" />
            <mxPoint x="280" y="220" as="targetPoint" />
          </mxGeometry>
        </mxCell>
        <mxCell id="86pVsJWeTmLGM8qY-D4d-20" value="" style="endArrow=none;html=1;rounded=0;exitX=0.5;exitY=0;exitDx=0;exitDy=0;entryX=0.5;entryY=1;entryDx=0;entryDy=0;" edge="1" parent="1" source="86pVsJWeTmLGM8qY-D4d-3" target="86pVsJWeTmLGM8qY-D4d-5">
          <mxGeometry width="50" height="50" relative="1" as="geometry">
            <mxPoint x="230" y="270" as="sourcePoint" />
            <mxPoint x="280" y="220" as="targetPoint" />
          </mxGeometry>
        </mxCell>
        <mxCell id="86pVsJWeTmLGM8qY-D4d-21" value="" style="endArrow=none;html=1;rounded=0;entryX=0;entryY=0.5;entryDx=0;entryDy=0;exitX=0.5;exitY=0;exitDx=0;exitDy=0;" edge="1" parent="1" source="86pVsJWeTmLGM8qY-D4d-6" target="86pVsJWeTmLGM8qY-D4d-3">
          <mxGeometry width="50" height="50" relative="1" as="geometry">
            <mxPoint x="120" y="550" as="sourcePoint" />
            <mxPoint x="170" y="500" as="targetPoint" />
            <Array as="points">
              <mxPoint x="120" y="450" />
            </Array>
          </mxGeometry>
        </mxCell>
        <mxCell id="86pVsJWeTmLGM8qY-D4d-22" value="" style="endArrow=none;html=1;rounded=0;entryX=0.5;entryY=0;entryDx=0;entryDy=0;exitX=1;exitY=0.5;exitDx=0;exitDy=0;" edge="1" parent="1" source="86pVsJWeTmLGM8qY-D4d-3" target="86pVsJWeTmLGM8qY-D4d-7">
          <mxGeometry width="50" height="50" relative="1" as="geometry">
            <mxPoint x="340" y="490" as="sourcePoint" />
            <mxPoint x="390" y="440" as="targetPoint" />
            <Array as="points">
              <mxPoint x="400" y="450" />
            </Array>
          </mxGeometry>
        </mxCell>
        <mxCell id="86pVsJWeTmLGM8qY-D4d-23" value="" style="endArrow=none;html=1;rounded=0;exitX=1;exitY=0.5;exitDx=0;exitDy=0;entryX=0.5;entryY=0;entryDx=0;entryDy=0;" edge="1" parent="1" source="86pVsJWeTmLGM8qY-D4d-6" target="86pVsJWeTmLGM8qY-D4d-10">
          <mxGeometry width="50" height="50" relative="1" as="geometry">
            <mxPoint x="170" y="570" as="sourcePoint" />
            <mxPoint x="220" y="520" as="targetPoint" />
            <Array as="points">
              <mxPoint x="260" y="500" />
            </Array>
          </mxGeometry>
        </mxCell>
        <mxCell id="86pVsJWeTmLGM8qY-D4d-24" value="" style="endArrow=none;html=1;rounded=0;entryX=0;entryY=0.5;entryDx=0;entryDy=0;exitX=0.5;exitY=1;exitDx=0;exitDy=0;" edge="1" parent="1" source="86pVsJWeTmLGM8qY-D4d-10" target="86pVsJWeTmLGM8qY-D4d-6">
          <mxGeometry width="50" height="50" relative="1" as="geometry">
            <mxPoint x="80" y="780" as="sourcePoint" />
            <mxPoint x="130" y="520" as="targetPoint" />
            <Array as="points">
              <mxPoint x="260" y="600" />
              <mxPoint x="20" y="600" />
              <mxPoint x="20" y="500" />
            </Array>
          </mxGeometry>
        </mxCell>
        <mxCell id="86pVsJWeTmLGM8qY-D4d-26" value="" style="endArrow=none;html=1;rounded=0;entryX=0.5;entryY=1;entryDx=0;entryDy=0;" edge="1" parent="1" target="86pVsJWeTmLGM8qY-D4d-7">
          <mxGeometry width="50" height="50" relative="1" as="geometry">
            <mxPoint x="100" y="600" as="sourcePoint" />
            <mxPoint x="370" y="600" as="targetPoint" />
            <Array as="points">
              <mxPoint x="100" y="610" />
              <mxPoint x="400" y="610" />
            </Array>
          </mxGeometry>
        </mxCell>
        <mxCell id="86pVsJWeTmLGM8qY-D4d-27" value="" style="endArrow=classic;html=1;rounded=0;entryX=0;entryY=0.5;entryDx=0;entryDy=0;" edge="1" parent="1" target="86pVsJWeTmLGM8qY-D4d-5">
          <mxGeometry width="50" height="50" relative="1" as="geometry">
            <mxPoint x="260" y="610" as="sourcePoint" />
            <mxPoint x="310" y="530" as="targetPoint" />
            <Array as="points">
              <mxPoint x="260" y="620" />
              <mxPoint x="10" y="620" />
              <mxPoint x="10" y="360" />
            </Array>
          </mxGeometry>
        </mxCell>
        <mxCell id="86pVsJWeTmLGM8qY-D4d-28" value="" style="endArrow=none;html=1;rounded=0;exitX=1;exitY=0.5;exitDx=0;exitDy=0;entryX=0.5;entryY=0;entryDx=0;entryDy=0;" edge="1" parent="1" source="86pVsJWeTmLGM8qY-D4d-5" target="86pVsJWeTmLGM8qY-D4d-29">
          <mxGeometry width="50" height="50" relative="1" as="geometry">
            <mxPoint x="270" y="540" as="sourcePoint" />
            <mxPoint x="320" y="490" as="targetPoint" />
            <Array as="points">
              <mxPoint x="470" y="360" />
              <mxPoint x="470" y="630" />
              <mxPoint x="260" y="630" />
              <mxPoint x="260" y="640" />
            </Array>
          </mxGeometry>
        </mxCell>
        <mxCell id="86pVsJWeTmLGM8qY-D4d-29" value="list_of_words = list_of_words + word" style="rounded=0;whiteSpace=wrap;html=1;" vertex="1" parent="1">
          <mxGeometry x="200" y="640" width="120" height="80" as="geometry" />
        </mxCell>
        <mxCell id="86pVsJWeTmLGM8qY-D4d-31" value="" style="endArrow=none;html=1;rounded=0;entryX=0.5;entryY=1;entryDx=0;entryDy=0;exitX=0.5;exitY=0;exitDx=0;exitDy=0;" edge="1" parent="1" source="86pVsJWeTmLGM8qY-D4d-69" target="86pVsJWeTmLGM8qY-D4d-29">
          <mxGeometry width="50" height="50" relative="1" as="geometry">
            <mxPoint x="260" y="730" as="sourcePoint" />
            <mxPoint x="330" y="950" as="targetPoint" />
          </mxGeometry>
        </mxCell>
        <mxCell id="86pVsJWeTmLGM8qY-D4d-45" value="" style="endArrow=none;html=1;rounded=0;entryX=0;entryY=0.5;entryDx=0;entryDy=0;exitX=0.5;exitY=1;exitDx=0;exitDy=0;" edge="1" parent="1" source="86pVsJWeTmLGM8qY-D4d-43">
          <mxGeometry width="50" height="50" relative="1" as="geometry">
            <mxPoint x="100" y="1050" as="sourcePoint" />
            <mxPoint x="199.9999999999999" y="1039.9999999999998" as="targetPoint" />
            <Array as="points">
              <mxPoint x="420" y="1140" />
              <mxPoint x="100" y="1140" />
              <mxPoint x="100" y="1040" />
            </Array>
          </mxGeometry>
        </mxCell>
        <mxCell id="86pVsJWeTmLGM8qY-D4d-59" value="i = (длина list_of_words) - 1;&lt;div&gt;i &amp;gt; -1;&lt;/div&gt;&lt;div&gt;i--&lt;/div&gt;" style="shape=hexagon;perimeter=hexagonPerimeter2;whiteSpace=wrap;html=1;fixedSize=1;" vertex="1" parent="1">
          <mxGeometry x="540" y="50" width="120" height="80" as="geometry" />
        </mxCell>
        <mxCell id="86pVsJWeTmLGM8qY-D4d-60" value="text_mirrored = text_mirrored + list_of_words[i]" style="rounded=0;whiteSpace=wrap;html=1;" vertex="1" parent="1">
          <mxGeometry x="540" y="140" width="120" height="80" as="geometry" />
        </mxCell>
        <mxCell id="86pVsJWeTmLGM8qY-D4d-61" value="reversed_list = reversed_list + list_of_words[i]" style="rounded=0;whiteSpace=wrap;html=1;" vertex="1" parent="1">
          <mxGeometry x="540" y="230" width="120" height="80" as="geometry" />
        </mxCell>
        <mxCell id="86pVsJWeTmLGM8qY-D4d-62" value="" style="endArrow=none;html=1;rounded=0;entryX=0.5;entryY=1;entryDx=0;entryDy=0;exitX=0.5;exitY=0;exitDx=0;exitDy=0;" edge="1" parent="1" source="86pVsJWeTmLGM8qY-D4d-60" target="86pVsJWeTmLGM8qY-D4d-59">
          <mxGeometry width="50" height="50" relative="1" as="geometry">
            <mxPoint x="620" y="230" as="sourcePoint" />
            <mxPoint x="670" y="180" as="targetPoint" />
          </mxGeometry>
        </mxCell>
        <mxCell id="86pVsJWeTmLGM8qY-D4d-63" value="" style="endArrow=none;html=1;rounded=0;exitX=0.5;exitY=0;exitDx=0;exitDy=0;entryX=0.5;entryY=1;entryDx=0;entryDy=0;" edge="1" parent="1" source="86pVsJWeTmLGM8qY-D4d-61" target="86pVsJWeTmLGM8qY-D4d-60">
          <mxGeometry width="50" height="50" relative="1" as="geometry">
            <mxPoint x="620" y="230" as="sourcePoint" />
            <mxPoint x="670" y="180" as="targetPoint" />
          </mxGeometry>
        </mxCell>
        <mxCell id="86pVsJWeTmLGM8qY-D4d-64" value="i != 0" style="rhombus;whiteSpace=wrap;html=1;" vertex="1" parent="1">
          <mxGeometry x="540" y="320" width="120" height="80" as="geometry" />
        </mxCell>
        <mxCell id="86pVsJWeTmLGM8qY-D4d-65" value="&lt;div&gt;text_mirrored = text_mirrored + &#39; &#39;&lt;/div&gt;" style="rounded=0;whiteSpace=wrap;html=1;" vertex="1" parent="1">
          <mxGeometry x="680" y="370" width="120" height="80" as="geometry" />
        </mxCell>
        <mxCell id="86pVsJWeTmLGM8qY-D4d-66" value="" style="endArrow=none;html=1;rounded=0;exitX=0.5;exitY=0;exitDx=0;exitDy=0;entryX=0.5;entryY=1;entryDx=0;entryDy=0;" edge="1" parent="1" source="86pVsJWeTmLGM8qY-D4d-64" target="86pVsJWeTmLGM8qY-D4d-61">
          <mxGeometry width="50" height="50" relative="1" as="geometry">
            <mxPoint x="570" y="180" as="sourcePoint" />
            <mxPoint x="600" y="310" as="targetPoint" />
          </mxGeometry>
        </mxCell>
        <mxCell id="86pVsJWeTmLGM8qY-D4d-67" value="" style="endArrow=none;html=1;rounded=0;entryX=0;entryY=0.5;entryDx=0;entryDy=0;exitX=0.5;exitY=1;exitDx=0;exitDy=0;" edge="1" parent="1" source="86pVsJWeTmLGM8qY-D4d-65" target="86pVsJWeTmLGM8qY-D4d-64">
          <mxGeometry width="50" height="50" relative="1" as="geometry">
            <mxPoint x="440" y="370" as="sourcePoint" />
            <mxPoint x="510" y="410" as="targetPoint" />
            <Array as="points">
              <mxPoint x="740" y="460" />
              <mxPoint x="500" y="460" />
              <mxPoint x="500" y="360" />
            </Array>
          </mxGeometry>
        </mxCell>
        <mxCell id="86pVsJWeTmLGM8qY-D4d-68" value="" style="endArrow=none;html=1;rounded=0;entryX=0.5;entryY=0;entryDx=0;entryDy=0;exitX=1;exitY=0.5;exitDx=0;exitDy=0;" edge="1" parent="1" source="86pVsJWeTmLGM8qY-D4d-64" target="86pVsJWeTmLGM8qY-D4d-65">
          <mxGeometry width="50" height="50" relative="1" as="geometry">
            <mxPoint x="680" y="400" as="sourcePoint" />
            <mxPoint x="730" y="350" as="targetPoint" />
            <Array as="points">
              <mxPoint x="740" y="360" />
            </Array>
          </mxGeometry>
        </mxCell>
        <mxCell id="86pVsJWeTmLGM8qY-D4d-69" value="A" style="ellipse;whiteSpace=wrap;html=1;aspect=fixed;" vertex="1" parent="1">
          <mxGeometry x="240" y="730" width="40" height="40" as="geometry" />
        </mxCell>
        <mxCell id="86pVsJWeTmLGM8qY-D4d-70" value="A" style="ellipse;whiteSpace=wrap;html=1;aspect=fixed;" vertex="1" parent="1">
          <mxGeometry x="580" width="40" height="40" as="geometry" />
        </mxCell>
        <mxCell id="86pVsJWeTmLGM8qY-D4d-71" value="" style="endArrow=none;html=1;rounded=0;exitX=0.5;exitY=0;exitDx=0;exitDy=0;entryX=0.5;entryY=1;entryDx=0;entryDy=0;" edge="1" parent="1" source="86pVsJWeTmLGM8qY-D4d-59" target="86pVsJWeTmLGM8qY-D4d-70">
          <mxGeometry width="50" height="50" relative="1" as="geometry">
            <mxPoint x="586" y="30" as="sourcePoint" />
            <mxPoint x="636" y="-20" as="targetPoint" />
          </mxGeometry>
        </mxCell>
        <mxCell id="86pVsJWeTmLGM8qY-D4d-72" value="" style="endArrow=classic;html=1;rounded=0;entryX=0;entryY=0.5;entryDx=0;entryDy=0;" edge="1" parent="1" target="86pVsJWeTmLGM8qY-D4d-59">
          <mxGeometry width="50" height="50" relative="1" as="geometry">
            <mxPoint x="600" y="460" as="sourcePoint" />
            <mxPoint x="596" y="270" as="targetPoint" />
            <Array as="points">
              <mxPoint x="600" y="470" />
              <mxPoint x="490" y="470" />
              <mxPoint x="490" y="90" />
            </Array>
          </mxGeometry>
        </mxCell>
        <mxCell id="86pVsJWeTmLGM8qY-D4d-73" value="" style="endArrow=none;html=1;rounded=0;exitX=1;exitY=0.5;exitDx=0;exitDy=0;entryX=0.5;entryY=0;entryDx=0;entryDy=0;" edge="1" parent="1" source="86pVsJWeTmLGM8qY-D4d-59" target="86pVsJWeTmLGM8qY-D4d-74">
          <mxGeometry width="50" height="50" relative="1" as="geometry">
            <mxPoint x="636" y="480" as="sourcePoint" />
            <mxPoint x="596" y="490" as="targetPoint" />
            <Array as="points">
              <mxPoint x="810" y="90" />
              <mxPoint x="810" y="480" />
              <mxPoint x="600" y="480" />
            </Array>
          </mxGeometry>
        </mxCell>
        <mxCell id="86pVsJWeTmLGM8qY-D4d-74" value="i = 0;&lt;div&gt;i &amp;lt; длина reversed_list;&lt;/div&gt;&lt;div&gt;i++&lt;/div&gt;" style="shape=hexagon;perimeter=hexagonPerimeter2;whiteSpace=wrap;html=1;fixedSize=1;" vertex="1" parent="1">
          <mxGeometry x="540" y="490" width="120" height="80" as="geometry" />
        </mxCell>
        <mxCell id="86pVsJWeTmLGM8qY-D4d-75" value="j = (длина reversed_list[i]) - 1;&lt;div&gt;j &amp;gt; -1;&lt;/div&gt;&lt;div&gt;i--&lt;/div&gt;" style="shape=hexagon;perimeter=hexagonPerimeter2;whiteSpace=wrap;html=1;fixedSize=1;" vertex="1" parent="1">
          <mxGeometry x="540" y="580" width="120" height="80" as="geometry" />
        </mxCell>
        <mxCell id="86pVsJWeTmLGM8qY-D4d-81" value="&lt;div&gt;text_reversed = text_reversed + reversed_list[i][j]&lt;/div&gt;" style="rounded=0;whiteSpace=wrap;html=1;" vertex="1" parent="1">
          <mxGeometry x="540" y="670" width="120" height="80" as="geometry" />
        </mxCell>
        <mxCell id="86pVsJWeTmLGM8qY-D4d-82" value="&lt;font style=&quot;font-size: 11px;&quot;&gt;i !=&amp;nbsp;&lt;/font&gt;&lt;div&gt;&lt;font style=&quot;font-size: 11px;&quot;&gt;reversed_list[-1]&lt;/font&gt;&lt;/div&gt;" style="rhombus;whiteSpace=wrap;html=1;" vertex="1" parent="1">
          <mxGeometry x="540" y="780" width="120" height="80" as="geometry" />
        </mxCell>
        <mxCell id="86pVsJWeTmLGM8qY-D4d-83" value="&lt;div&gt;text_reversed = text_reversed + &#39; &#39;&lt;/div&gt;" style="rounded=0;whiteSpace=wrap;html=1;" vertex="1" parent="1">
          <mxGeometry x="680" y="830" width="120" height="80" as="geometry" />
        </mxCell>
        <mxCell id="86pVsJWeTmLGM8qY-D4d-85" value="" style="endArrow=none;html=1;rounded=0;entryX=0.5;entryY=0;entryDx=0;entryDy=0;exitX=1;exitY=0.5;exitDx=0;exitDy=0;" edge="1" parent="1" source="86pVsJWeTmLGM8qY-D4d-82" target="86pVsJWeTmLGM8qY-D4d-83">
          <mxGeometry width="50" height="50" relative="1" as="geometry">
            <mxPoint x="680" y="850" as="sourcePoint" />
            <mxPoint x="730" y="800" as="targetPoint" />
            <Array as="points">
              <mxPoint x="740" y="820" />
            </Array>
          </mxGeometry>
        </mxCell>
        <mxCell id="86pVsJWeTmLGM8qY-D4d-87" value="" style="endArrow=none;html=1;rounded=0;entryX=0.5;entryY=1;entryDx=0;entryDy=0;exitX=0.5;exitY=0;exitDx=0;exitDy=0;" edge="1" parent="1" source="86pVsJWeTmLGM8qY-D4d-75" target="86pVsJWeTmLGM8qY-D4d-74">
          <mxGeometry width="50" height="50" relative="1" as="geometry">
            <mxPoint x="610" y="540" as="sourcePoint" />
            <mxPoint x="660" y="490" as="targetPoint" />
          </mxGeometry>
        </mxCell>
        <mxCell id="86pVsJWeTmLGM8qY-D4d-88" value="" style="endArrow=none;html=1;rounded=0;exitX=0.5;exitY=0;exitDx=0;exitDy=0;entryX=0.5;entryY=1;entryDx=0;entryDy=0;" edge="1" parent="1" source="86pVsJWeTmLGM8qY-D4d-81" target="86pVsJWeTmLGM8qY-D4d-75">
          <mxGeometry width="50" height="50" relative="1" as="geometry">
            <mxPoint x="630" y="690" as="sourcePoint" />
            <mxPoint x="680" y="640" as="targetPoint" />
          </mxGeometry>
        </mxCell>
        <mxCell id="86pVsJWeTmLGM8qY-D4d-89" value="" style="endArrow=classic;html=1;rounded=0;exitX=0.5;exitY=1;exitDx=0;exitDy=0;entryX=0;entryY=0.5;entryDx=0;entryDy=0;" edge="1" parent="1" source="86pVsJWeTmLGM8qY-D4d-81" target="86pVsJWeTmLGM8qY-D4d-75">
          <mxGeometry width="50" height="50" relative="1" as="geometry">
            <mxPoint x="630" y="810" as="sourcePoint" />
            <mxPoint x="680" y="760" as="targetPoint" />
            <Array as="points">
              <mxPoint x="600" y="760" />
              <mxPoint x="520" y="760" />
              <mxPoint x="520" y="620" />
            </Array>
          </mxGeometry>
        </mxCell>
        <mxCell id="86pVsJWeTmLGM8qY-D4d-90" value="" style="endArrow=none;html=1;rounded=0;exitX=1;exitY=0.5;exitDx=0;exitDy=0;entryX=0.5;entryY=0;entryDx=0;entryDy=0;" edge="1" parent="1" source="86pVsJWeTmLGM8qY-D4d-75" target="86pVsJWeTmLGM8qY-D4d-82">
          <mxGeometry width="50" height="50" relative="1" as="geometry">
            <mxPoint x="550" y="740" as="sourcePoint" />
            <mxPoint x="600" y="770" as="targetPoint" />
            <Array as="points">
              <mxPoint x="680" y="620" />
              <mxPoint x="680" y="770" />
              <mxPoint x="600" y="770" />
            </Array>
          </mxGeometry>
        </mxCell>
        <mxCell id="86pVsJWeTmLGM8qY-D4d-91" value="" style="endArrow=none;html=1;rounded=0;entryX=0;entryY=0.5;entryDx=0;entryDy=0;exitX=0.5;exitY=1;exitDx=0;exitDy=0;" edge="1" parent="1" source="86pVsJWeTmLGM8qY-D4d-83" target="86pVsJWeTmLGM8qY-D4d-82">
          <mxGeometry width="50" height="50" relative="1" as="geometry">
            <mxPoint x="470" y="895" as="sourcePoint" />
            <mxPoint x="520" y="845" as="targetPoint" />
            <Array as="points">
              <mxPoint x="740" y="920" />
              <mxPoint x="500" y="920" />
              <mxPoint x="500" y="820" />
            </Array>
          </mxGeometry>
        </mxCell>
        <mxCell id="86pVsJWeTmLGM8qY-D4d-92" value="" style="endArrow=classic;html=1;rounded=0;entryX=0;entryY=0.5;entryDx=0;entryDy=0;" edge="1" parent="1" target="86pVsJWeTmLGM8qY-D4d-74">
          <mxGeometry width="50" height="50" relative="1" as="geometry">
            <mxPoint x="600" y="920" as="sourcePoint" />
            <mxPoint x="580" y="790" as="targetPoint" />
            <Array as="points">
              <mxPoint x="600" y="930" />
              <mxPoint x="480" y="930" />
              <mxPoint x="480" y="530" />
            </Array>
          </mxGeometry>
        </mxCell>
        <mxCell id="86pVsJWeTmLGM8qY-D4d-93" value="" style="endArrow=none;html=1;rounded=0;exitX=1;exitY=0.5;exitDx=0;exitDy=0;entryX=0.5;entryY=0;entryDx=0;entryDy=0;" edge="1" parent="1" source="86pVsJWeTmLGM8qY-D4d-74" target="86pVsJWeTmLGM8qY-D4d-94">
          <mxGeometry width="50" height="50" relative="1" as="geometry">
            <mxPoint x="630" y="600" as="sourcePoint" />
            <mxPoint x="600" y="950" as="targetPoint" />
            <Array as="points">
              <mxPoint x="810" y="530" />
              <mxPoint x="810" y="940" />
              <mxPoint x="600" y="940" />
            </Array>
          </mxGeometry>
        </mxCell>
        <mxCell id="86pVsJWeTmLGM8qY-D4d-94" value="Вывод&amp;nbsp;&lt;div&gt;text_reversed&lt;/div&gt;" style="shape=parallelogram;perimeter=parallelogramPerimeter;whiteSpace=wrap;html=1;fixedSize=1;" vertex="1" parent="1">
          <mxGeometry x="540" y="950" width="120" height="60" as="geometry" />
        </mxCell>
        <mxCell id="86pVsJWeTmLGM8qY-D4d-95" value="True" style="text;html=1;align=center;verticalAlign=middle;whiteSpace=wrap;rounded=0;" vertex="1" parent="1">
          <mxGeometry x="340" y="420" width="60" height="30" as="geometry" />
        </mxCell>
        <mxCell id="86pVsJWeTmLGM8qY-D4d-96" value="False" style="text;html=1;align=center;verticalAlign=middle;whiteSpace=wrap;rounded=0;" vertex="1" parent="1">
          <mxGeometry x="110" y="420" width="60" height="30" as="geometry" />
        </mxCell>
        <mxCell id="86pVsJWeTmLGM8qY-D4d-97" value="True" style="text;html=1;align=center;verticalAlign=middle;whiteSpace=wrap;rounded=0;" vertex="1" parent="1">
          <mxGeometry x="690" y="330" width="60" height="30" as="geometry" />
        </mxCell>
        <mxCell id="86pVsJWeTmLGM8qY-D4d-98" value="True" style="text;html=1;align=center;verticalAlign=middle;whiteSpace=wrap;rounded=0;" vertex="1" parent="1">
          <mxGeometry x="690" y="790" width="60" height="30" as="geometry" />
        </mxCell>
        <mxCell id="86pVsJWeTmLGM8qY-D4d-99" value="True" style="text;html=1;align=center;verticalAlign=middle;whiteSpace=wrap;rounded=0;" vertex="1" parent="1">
          <mxGeometry x="200" y="470" width="60" height="30" as="geometry" />
        </mxCell>
        <mxCell id="86pVsJWeTmLGM8qY-D4d-100" value="False" style="text;html=1;align=center;verticalAlign=middle;whiteSpace=wrap;rounded=0;" vertex="1" parent="1">
          <mxGeometry x="20" y="470" width="60" height="30" as="geometry" />
        </mxCell>
        <mxCell id="86pVsJWeTmLGM8qY-D4d-101" value="False" style="text;html=1;align=center;verticalAlign=middle;whiteSpace=wrap;rounded=0;" vertex="1" parent="1">
          <mxGeometry x="490" y="330" width="60" height="30" as="geometry" />
        </mxCell>
        <mxCell id="86pVsJWeTmLGM8qY-D4d-102" value="False" style="text;html=1;align=center;verticalAlign=middle;whiteSpace=wrap;rounded=0;" vertex="1" parent="1">
          <mxGeometry x="490" y="790" width="60" height="30" as="geometry" />
        </mxCell>
      </root>
    </mxGraphModel>
  </diagram>
</mxfile>
